# xmcd CD database file
#
# Track frame offsets:
#	150
#	12787
#	24900
#	37212
#	54212
#	66212
#	80825
#	93225
#	104962
#	116637
#	131837
#	145000
#	159187
#	174837
#	187787
#	202250
#	215850
#	227725
#	239850
#	252625
#	265012
#	277837
#	289525
#	303875
#	316337
#
# Disc length: 4413 seconds
#
# Revision: 6
# Processed by: cddbd v1.5.2PL0 Copyright (c) Steve Scherf et al.
# Submitted via: CDex 1.99
#
DISCID=6a113b19
DTITLE=Various Artist - The Chess Story 1947-1975 CD 3: 1952-1954
DYEAR=1999
DGENRE=Soul/R&B
TTITLE0=Howlin' Wolf - Mr. Highway Man
TTITLE1=Big Boy Spires - Murmur Low
TTITLE2=John Lee Hooker - Walkin' The Boogie
TTITLE3=Joe Hill Louis - When I Am Gone [Extended Version]
TTITLE4=Willie Nix - Truckin' Little Woman
TTITLE5=John Lee Hooker - Sugar Mama
TTITLE6=Little Walter and His Nightcats - Juke
TTITLE7=Blue Smitty - Date Bait
TTITLE8=Joe Williams - Every Day I Have The Blues
TTITLE9=Muddy Waters - Standing Around Cryin'
TTITLE10=Little Walter - Mean Old World
TTITLE11=Willie Mabon - I Don't Know
TTITLE12=Eddie Boyd - 24 Hours
TTITLE13=Memphis Minnie - Me And My Chauffeur
TTITLE14=Little Walter - Sad Hours
TTITLE15=Elmore James - She Just Won't Do Right (Dust My Broom)
TTITLE16=Willie Mabon - I'm Mad
TTITLE17=John Brim - Be Careful What You Do
TTITLE18=Little Walter - Off The Wall
TTITLE19=Washboard Sam - Diggin' My Potatoes
TTITLE20=The Coronets - Nadine
TTITLE21=Mitzi Mars - I'm Glad
TTITLE22=Danny Overbea - Forty Cups Of Coffee
TTITLE23=Little Walter - Tell Me Mama
TTITLE24=Eddie Boyd - Third Degree
EXTD=YEAR: 1999
EXTT0=
EXTT1=
EXTT2=
EXTT3=
EXTT4=
EXTT5=
EXTT6=
EXTT7=
EXTT8=
EXTT9=
EXTT10=
EXTT11=
EXTT12=
EXTT13=
EXTT14=
EXTT15=
EXTT16=
EXTT17=
EXTT18=
EXTT19=
EXTT20=
EXTT21=
EXTT22=
EXTT23=
EXTT24=
PLAYORDER=
